<?xml version="1.0" encoding="UTF-8"?><svg id="Layer_1" xmlns="http://www.w3.org/2000/svg" xmlns:xlink="http://www.w3.org/1999/xlink" viewBox="0 0 978 519.9"><defs><style>.cls-1{fill:none;}.cls-2{clip-path:url(#clippath);}.cls-3{fill:#fcbf00;}.cls-4{fill:#4d4d61;}.cls-5{clip-path:url(#clippath-1);}</style><clipPath id="clippath"><rect class="cls-1" width="978" height="519.9"/></clipPath><clipPath id="clippath-1"><rect class="cls-1" width="978" height="519.9"/></clipPath></defs><g class="cls-2"><path class="cls-3" d="m185.45,350.78c-13.78,0-23.86-7.18-23.86-16.04-1.43,1.43-3.79,2.85-7.09,5.22-5.66,3.79-28.83,13.24-51.03,13.24-29.28,0-53.88-9.94-73.71-29.77C9.94,303.1,0,279.04,0,250.21s9.94-52.4,29.77-72.73c20.32-20.32,44.88-30.21,73.71-30.21s52.45,9.45,72.77,27.85c20.32,18.4,30.7,43.94,30.7,76.51v81.14c0,14.22-14.47,18.01-21.5,18.01m-81.98-41.09c32.57,0,58.11-25.05,58.11-59.54s-24.55-59.54-58.11-59.54-58.11,25.49-58.11,59.54,25.49,59.54,58.11,59.54m698.27-141.71c20.32-20.32,44.43-30.21,73.22-30.21s52.45,9.89,72.77,30.21,30.26,44.38,30.26,72.73-9.94,52.9-30.26,73.22c-20.32,19.83-44.43,29.77-72.77,29.77s-52.9-9.94-73.22-29.77c-20.32-20.32-30.26-44.38-30.26-73.22.05-28.34,9.94-52.4,30.26-72.73m15.16,72.73c0,17.47,5.66,31.64,16.53,43.01,11.32,10.87,25.05,16.53,41.58,16.53s30.26-5.66,41.09-16.53c11.32-11.32,17.02-25.49,17.02-43.01s-5.66-31.64-17.02-42.51c-10.87-11.32-24.55-17.02-41.09-17.02s-30.26,5.66-41.58,17.02c-10.87,10.87-16.53,25.05-16.53,42.51M341.29,76.86c-28.83,0-52.9,9.89-73.22,30.21s-30.26,44.38-30.26,72.73,9.94,52.9,30.26,73.22c20.32,19.83,44.43,29.77,73.22,29.77s52.45-9.94,72.77-29.77c20.32-20.32,30.21-44.38,30.21-73.22s-9.94-52.4-30.21-72.73c-20.32-20.32-44.38-30.21-72.77-30.21m41.14,145.94c-10.87,10.87-24.55,16.53-41.09,16.53s-30.26-5.66-41.58-16.53c-10.87-11.32-16.53-25.49-16.53-43.01s5.66-31.64,16.53-42.51c11.32-11.32,25.05-17.02,41.58-17.02s30.26,5.66,41.09,17.02c11.32,10.87,17.02,25.05,17.02,42.51-.05,17.47-5.71,31.64-17.02,43.01m36.85,69.63c14.17,0,25.14,13.24,21.6,26.96-4.43,17.32-13.38,32.62-27.01,46.25-20.32,19.83-44.43,29.77-72.77,29.77s-52.9-9.89-73.22-29.77c-13.09-13.09-21.9-27.8-26.47-44.28-.59-2.02-.89-4.08-.89-6.15-.05-12.5,10.04-22.68,22.54-22.78,10.14,0,19.44,6.59,21.8,16.39,2.41,10.04,7.48,19.19,14.66,26.57,11.32,10.87,25.05,16.53,41.58,16.53s30.26-5.66,41.09-16.53c7.43-7.28,12.65-16.48,15.11-26.57,2.51-9.84,11.91-16.39,21.99-16.39m165.87,66.28c0,12.55,10.14,22.68,22.68,22.68s22.68-10.14,22.68-22.68V22.68c0-12.5-10.14-22.68-22.68-22.68s-22.68,10.14-22.68,22.68v336.02m-81.58-219.85h0c12.55,0,22.68,10.14,22.68,22.68v158.34c0,12.5-10.14,22.68-22.68,22.68s-22.68-10.14-22.68-22.68v-158.34c0-12.5,10.19-22.68,22.68-22.68m0-31.39c12.55,0,22.68-10.14,22.68-22.68h0v-23.37c0-12.5-10.14-22.68-22.68-22.68s-22.68,10.14-22.68,22.68v23.37c0,12.55,10.19,22.68,22.68,22.68m208.53,31.39c12.5,0,22.68,10.14,22.68,22.68v158.34c0,12.5-10.14,22.63-22.68,22.68-12.55,0-22.68-10.14-22.68-22.68v-158.34c0-12.5,10.14-22.68,22.68-22.68m0-31.39c12.5,0,22.68-10.14,22.68-22.68v-23.37c0-12.55-10.19-22.68-22.68-22.68s-22.63,10.14-22.68,22.68v23.37c0,12.55,10.14,22.68,22.68,22.68"/></g><g class="cls-5"><path class="cls-4" d="m241.65,463.22l-5.95,6.79c-4.28-3.74-8.56-5.36-13.63-5.36-5.51,0-9.55,2.51-9.55,7.33,0,4.43,2.41,6.4,12.65,9.64,10.78,3.4,18.26,7.82,18.26,19.44s-8.66,18.89-23.32,18.89c-9.79,0-17.12-3.49-22.19-8.46l6.25-6.94c4.28,4.03,9.25,6.35,15.7,6.35s11.32-3.2,11.32-9.2c0-5.17-2.56-7.48-12.2-10.43-12.94-3.99-18.55-9.15-18.55-18.55,0-10.23,8.81-17.02,20.96-17.02,8.96-.05,14.91,2.61,20.27,7.53m85.08,24.5c0,20.32-10.43,32.18-26.92,32.18s-27.01-11.46-27.01-32.08,10.53-32.18,27.01-32.18c16.48,0,26.92,11.46,26.92,32.08m-41.53.1c0,16.58,5.61,23.08,14.61,23.08s14.52-6.5,14.52-23.18-5.26-23.08-14.52-23.08-14.61,6.59-14.61,23.18m87.04-22.14v18.45h18.99v8.76h-18.99v25.64h-11.76v-61.56h34.84l-1.23,8.71h-21.85Zm76.81.64v52.21h-11.86v-52.21h-16.58v-9.35h45.71l-1.23,9.35h-16.04Zm86.95,52.21l-9.35-49.11-9.64,49.11h-14.86l-11.12-61.56h11.66l7.82,52.21,10.09-52.21h12.5l9.89,52.21,8.56-52.21h11.12l-11.32,61.56h-15.35Zm64.61-14.22l-3.84,14.27h-12.2l19.14-61.56h14.52l19.09,61.56h-12.5l-3.84-14.27h-20.37Zm10.14-38.33l-7.82,29.42h15.7l-7.87-29.42Zm67.9,27.9v24.7h-11.76v-61.56h18.35c16.14,0,24.41,5.9,24.41,18.11,0,8.36-4.08,13.38-12.45,16.68l16.14,26.82h-13.53l-13.63-24.7h-7.53v-.05Zm7.33-8.46c7.28,0,11.42-2.95,11.42-10.33,0-6.69-3.84-9.55-12.4-9.55h-6.35v19.88h7.33Zm69.82-19.73v17.22h19.78v8.71h-19.78v18.11h24.31v8.81h-36.07v-61.56h35.72l-1.23,8.71h-22.73Z"/></g></svg>